<svg version="1" xmlns="http://www.w3.org/2000/svg" width="486.667" height="486.667" viewBox="0 0 365.000000 365.000000"><path d="M64.8 112.5c-.2.2-3 .5-6.4.8-8.1.8-20.7 6-28.3 11.9-7.8 6-18.1 17.2-18.1 19.8 0 .5-.3 1-.8 1-1.6 0-8.9 21-9.8 28.6-1.6 12-.7 24.5 2.4 33.9 3.3 10.3 14.2 22.7 24.9 28.3 7.1 3.8 17.4 7.2 22 7.5 1.8.1 3.3.5 3.3.8 0 .8 2.3 1 16 1.2 11.4.2 11.5.2 11.6-2.1.1-1.6-.3-2.1-1.2-1.8-.8.3-1.4.1-1.4-.5 0-1.5 3.5-.6 3.6.9.1.6.2 2 .3 2.9.1 1.6.3 1.6 1.1.3.5-.8 1-1.1 1-.7 0 .4.9.3 2-.3 1.5-.8 2-.8 2 .2 0 .9.3 1 .8.2.4-.6 1.5-1 2.5-.8.9.1 1.4-.2 1.1-.7-.3-.6.5-.8 2-.5 3.2.6 3.3.1.4-1.5-1.8-1-2.4-.8-3.6.7-1.2 1.6-1.4 1.6-.9.2.4-1.1-.3-2.4-2-3.6-1.5-1.1-2.3-2.4-1.9-3 .9-1.5 2.6-1.6 2.6-.1 0 .5-.4.7-1 .4-.5-.3-1-.3-1 .2.1 1.2 5 4.6 5 3.4 0-.5-.4-1.3-1-1.6-.5-.3-1-1.1-1-1.8 0-.6.6-.3 1.3.7 1.2 1.7 5.2 1.3 4.2-.5-.3-.4-1.3-.5-2.2-.2-1.1.4-1.4.3-.9-.5.4-.7 1.4-1.2 2.2-1.2.8 0 1.4-.5 1.4-1.1 0-.5-.4-.8-.9-.5-.5.4-.8-.5-.7-1.9.3-2.7-1.2-4.5-4.1-4.9-2-.3-2.5-2.8-.5-3.2.7-.1.8 0 .2.3-.5.2-1 .9-1 1.4 0 .6.4.8.9.5.5-.3 2 .4 3.5 1.5 1.4 1.1 2.6 1.6 2.6 1 0-.5-.4-1.3-1-1.6-.5-.3-1-1-1-1.6 0-.5.8-.1 1.8.8 1.3 1.2 1.6 2.2.9 3-1.1 1.5.1 1.7 2.2.4 1.1-.7.9-1.3-.7-2.9-1.1-1.1-1.8-2.3-1.4-2.6.6-.6-1.4-1-3.8-.6-1.1.1-1.2-.1-.4-1 1.3-1.3 5.4.3 5.4 2.1 0 .6.5.7 1 .4.7-.4.7-1.2.2-1.8-.5-.7-.9-2.3-1-3.7-.1-2.2 0-2.3.9-.7.8 1.4 1.4 1.5 3.1.6 1.4-.7 1.7-1.4 1-2.1-.6-.6-.8-1.8-.4-2.7.5-1.4.4-1.4-1.1-.2-1.3 1-1.5 1.7-.6 2.7.7.9.8 1.4.1 1.4-2.1 0-2-3 .4-5.7 1.3-1.5 2.3-3.4 2.1-4.2-.1-.8.4-1.5 1.1-1.7.7-.1.8 0 .2.3-.5.2-.7.9-.4 1.4.3.6.1 1.6-.6 2.4-.8 1-.8 1.9-.1 3.3.6 1.1.7 2.2.4 2.6-.3.3-.2.6.4.6 1.8 0 2.3-1.2 1.2-3.1-.7-1.4-.5-2.7.6-4.9 1.7-3.3 1.9-3.4 4.5-2 1 .6 2.1.6 2.4.1.7-1.1-3.4-2.9-5.9-2.4-1.1.2-3.8.5-6 .7-2.2.2-4 .5-4 .6 0 .3-5.5.8-12.2 1.2-2.8.1-4.9.6-4.6 1.1.3.5-.3.5-1.3 0-2.3-1-5.5-1-7.2 0-.6.5-1.2.5-1.2 0 0-.4-1.2-.8-2.7-.9-20.6-.5-49.6-14.4-56.3-26.8-1.3-2.6-1.2-2.8 5.7-9.5 7.7-7.5 12.5-10.5 21.8-13.1 7-2 20-2 28.9-.1 8.6 1.9 29 11.1 49.1 22.1 2.8 1.5 8.5 4.6 12.8 6.9 12.7 6.8 14 7.6 14.4 8.8.2.6-.7.9-2.2.8-1.4-.2-2.5.1-2.5.7 0 .5 1 .6 2.3.3 1.6-.5 1.9-.4 1.1.4-1.7 1.8-5.7 2.3-5 .6.8-2.3-2.1-.6-3.9 2.2-2 3-3.1 2.4-1.5-.9 1.1-2.2 1.1-2.2-.5-.3-1.8 2.2-2.4 2.3-3.6.3-.7-1-.9-1-.9-.1 0 .7-.6 1.2-1.2 1-.7-.1-1.2.4-1.1 1 .2.7-.2 1.3-.7 1.3-.6 0-1-.5-1-1.1 0-.6-.7-.8-1.7-.5-.9.4-3.2.9-5.2 1.2-4.3.7-6.4 2.3-2.7 2.1 1.4-.1 2.6-.6 2.6-1.1 0-.5.3-.6.6-.3.4.4.1 1.3-.6 2.2-1.1 1.3-1 1.5.8 1.2 2.5-.4 4.2-1.7 2.2-1.7-1.1 0-1.1-.3-.2-1.2.9-.9 1.5-.9 2.5.1 1 1.1.9 1.3-.3.7-.8-.4-.4.1 1 1.3l2.5 2-2.8 2.9c-1.5 1.5-2.4 3.2-2 3.7.5.4.2.5-.5.1s-2.1-.2-3 .6c-1.6 1.2-1.6 1.1-.2-.6 1.4-1.8 1.4-1.9-.7-.5-1.6 1-1.9 1.6-1 2.2.7.5.2.6-1.3.2-2.2-.6-2.1-.4.8 1.4 1.7 1.1 3.2 2.3 3.2 2.6 0 .3-1.1-.2-2.5-1.1-2.3-1.5-2.5-1.5-1.9 0 .3.9 1 1.4 1.4 1.1.4-.3 1.4.3 2.1 1.3 1.3 1.5 1.2 1.6-.3.4-1.4-1.2-1.6-1-1.4 1.2.2 1.4-.1 2.3-.6 2-.5-.3-.8-.2-.7.3.4 2.5-.1 3.5-1.4 2.4-1-.8-1.4-.7-1.4.4 0 .8.3 1.3.5 1 .7-.7 3.2 1.5 3.2 2.9 0 .6-.4.5-.9-.3-.6-.9-1-1-1.6-.2-.5.9-1.1.9-2.3-.1-1.3-1.1-1.5-1-.9.4.3 1 .2 2-.4 2.3-.5.4-.7 1.1-.4 1.6.3.5-.2.6-1.2.3-1.4-.4-1.5-.3-.4.4.8.6.9 1.2.3 1.6-.5.3-1.3-.1-1.6-1-.3-.8-1.1-1.2-1.7-.8-.6.3-1.5 0-2-.7-.7-1.1-.9-1.1-.9-.1 0 .7-.4 1-1 .7-.5-.3-.7 0-.4.9.3.8 1.6 1.3 3 1.1 1.3-.1 2.7.2 3.1.8.3.6.1.7-.5.3-.7-.4-1.2-.3-1.2.3 0 .8-2 .8-4 .1-.3-.1-.8-.2-1.1-.2-.4.1-.6-1-.6-2.3 0-2.3 1.2-3.1 4.1-2.6.5.1.6-.5.3-1.3-.4-.9-.2-1.8.3-2.1.6-.4 1-1.2 1-1.8-.1-.7-1.2.1-2.5 1.7l-2.4 3-2-2.5c-1.1-1.3-2-1.9-2.1-1.2 0 .6.4 1.4.9 1.7.5.3.7 2.6.6 5-.3 4.9 1.2 6.4 4.6 4.6 1-.6 1.9-.8 1.9-.5 0 .3 1 0 2.3-.7 1.2-.7 2.9-1.2 3.8-1.3.9 0 2.3-.6 3.1-1.2.8-.7 1.9-.9 2.3-.5.5.4.5.1 0-.7-.6-1-.2-1.2 1.4-.6 1.3.4 2.1.2 2.1-.5 0-.6.4-.8 1-.5.6.4.7-.1.3-1.2-.5-1.4-.3-1.6.7-.6 1.8 1.6 5.4-.3 4.6-2.4-.4-.9-.1-1.3.6-1 .7.2 1.2 1 1 1.6-.1.8.4.8 1.7-.1 1.5-.9 1.7-1.6 1-2.5-.8-.9-.4-1.2 1.7-1 1.5.1 2.9-.4 3.1-1.1.3-.6 0-1.2-.7-1.2-.6 0-.8.4-.5 1 .3.5-.1 1-1 1s-1.3-.4-1-1c.3-.5 0-.7-.8-.4-.9.3-2.2-.4-3.1-1.8-2-2.8-2-3.9-.1-3.2.8.3 1.3 1.1 1.2 1.7-.1.7 1.2 1.2 3.1 1.2 1.8 0 3.7.6 4.1 1.4.6 1 1 .9 1.5-.4.9-2.4.7-3.2-.4-1.5-.7 1.1-1 1.1-1 .2 0-.7-.6-1.2-1.2-1-2.1.3-5.9-1.3-5.2-2.3.3-.5 1-.6 1.6-.3 2.7 1.7 6.6 1.3 8.4-.8 1.1-1.2 1.4-1.8.7-1.5-.6.4-1.4.1-1.7-.5-.3-.7-.4-.4-.3.6.1 1-.4 2.1-1.2 2.4-.9.3-1.1 0-.6-.9.6-1.1.5-1.2-.6-.2-.7.7-1.8 1.3-2.3 1.3-.6-.1 0-1 1.3-2.1 1.8-1.5 2.1-2.3 1.3-3.1-1.9-1.9-1.4-3.3.6-1.5 1.3 1.2 2.1 1.3 3.2.6 1.2-.9 1.2-1-.2-.5-2.3.7-2.3-.8-.1-3 1.6-1.6 1.6-1.6-.7-.9-2.2.7-2.3.6-1.2-.8.8-.9 1.9-1.4 2.7-1.1.7.3 1.6.1 1.9-.4.3-.5-.5-1-1.9-1-1.3 0-2.6.7-2.9 1.4-.3.8-1.1 1.4-1.7 1.4-.8 0-.8-.4.1-1.5.9-1 .9-1.5.1-1.5-.6 0-1.1.4-1.1 1 0 1.8-1.6 1-1.7-.8-.1-1.6.6-1.8 4.8-1.8 3.3.1 5.3.6 5.9 1.6.5.8 1 1 1 .5 0-.6-.5-1.6-1.2-2.3-.6-.6-.9-1.4-.6-1.8.4-.3 1.6.4 2.8 1.6 1.1 1.1 2.6 1.8 3.2 1.4.7-.5.9 0 .5 1.5-.3 1.4.1 2.4 1.2 3.1 1.3.6 1.8.5 1.8-.5 0-.7-.6-1.1-1.2-.9-.7.3-1.1-.4-1.1-1.8.1-1.2-.5-2.3-1.1-2.4-.7-.1-1.8-.2-2.4-.3-.5 0-.7-.6-.4-1.1.3-.6 0-1.1-.7-1.1-.7-.1-2-.3-2.8-.4-.8-.1-2.1-.3-2.8-.4-.7 0-1-.6-.7-1.1.4-.6 1.1-.8 1.6-.4.5.3 1.6 0 2.4-.6 1-.8 1.5-.9 1.5-.2 0 .6.9 1.4 2 1.7 1.2.4 1.8 1.1 1.4 1.8-.4.7.1.5 1.1-.4 1.4-1.4 1.5-2.1.6-3.5-1.1-1.7-1.1-1.7-.6.4.6 2.1.5 2.3-1.3 1.3-2.7-1.4-4.2-3.7-1.9-2.8 1.1.4 1.4.2 1-.9-.6-1.6 6 1.5 11.5 5.5 1.6 1.1 3.2 1.8 3.6 1.4.3-.3.6-.1.6.5 0 .7.5 1.2 1.1 1.2.6 0 5.2 2.1 10.2 4.7 46.1 23.4 57.4 28.7 72.9 34.1 4.7 1.7 11.2 3.6 14.5 4.1 3.2.6 6.7 1.3 7.9 1.5 16.8 3.3 34.9 2.2 47.1-2.9 1.8-.8 3.6-1.4 3.8-1.4 1-.1 10.1-5.4 13.3-7.8 7.8-5.9 17-17.2 20.8-25.5.8-1.8 1.8-4 2.3-4.8 6.1-10.6 9.2-33 6.3-46-3.4-15.4-13.4-27.6-28.3-34.9-4.6-2.2-9.5-4.2-10.9-4.5-1.4-.2-2.5-.5-2.5-.6 0-.2-2.5-.8-8-2-8.4-1.7-13.8-2-15.4-.7-1.1.9-1.3.9-.8 0 .4-.6.3-1.4-.3-1.8-.5-.3-1 0-1 .7 0 .8-.3.9-.8.3-.9-1.3-3.2-1.7-3.2-.6 0 .5-1.6.7-3.6.4-3.4-.5-3.5-.4-2.5 1.9l1.2 2.3-1.7-2.3c-1.6-2.1-1.7-2.1-3.1-.5-.8 1-1.1 1.2-.7.4.6-1.1.1-1.3-2.7-.6-1.9.4-4.2.7-5.1.7-1-.1-1.8.5-1.8 1.1 0 .7-.4.6-1.1-.3-.8-1.2-.9-1.2-.7.5.1 1.1-.6 3.3-1.5 5-1.6 2.6-1.7 2.7-1.1.5.6-2.2.5-2.3-.9-1.1-.9.7-1.4 1.7-1.1 2.2.3.5 0 .9-.6.9-.7 0-.9-.8-.5-2.3.7-2.1.6-2.1-1.1-.5-1.3 1.3-1.5 2-.6 3 .8 1.1.6 1.7-.8 2.6-1.2.7-2.1.8-2.5.2-.3-.6-1.2-1-1.8-1-.7.1-.1 1 1.2 2 1.8 1.6 2.1 2.3 1.2 3.4-.7.9-.8 1.7-.2 2 .5.3 1.1.3 1.4-.1.2-.5.2-.1-.1.7-1.2 4.3-.7 8.3 1.3 9.6 1 .8 1.5 1.4 1.1 1.4-.5 0-1.8-.7-2.8-1.7-1-.9-1.8-1.1-1.8-.5 0 .6.5 1.4 1 1.7 1.2.7 1.4 4.5.2 4.5s-1.6-5.1-.8-11.3c.4-3.2.2-3.6-1-2.6-.8.6-1.1 2-.8 3.3.3 1.4-.1 2.8-1 3.5-1.7 1.4-2.2 3.6-.7 2.6 1.8-1 2.5 3.8.7 5-.8.7-1.2 1.6-.8 2.1.4.5.3.6-.2.1-.5-.4-2 0-3.3.8-2.3 1.5-4.9 1.2-3.8-.5.4-.7-1.6-2-3.1-2-.2 0 .6 1.6 1.8 3.5 1.9 2.9 2.7 3.4 4.8 2.9 2.9-.7 3.6-1.2 2.7-2-.4-.4-1.5-.1-2.4.7-1.6 1.3-1.7 1.2-.4-.4.8-1 2-1.6 2.7-1.3.8.3 1.8-.4 2.4-1.4.6-1.1 1.5-2 2.1-2 .5 0 .1 1-1.1 2.2-2.1 2.3-2.9 5.1-.8 3 1.4-1.4 3.2-1.6 2.3-.3-.3.6.8.6 2.7.1 4.9-1.3 12.3-2.1 21.6-2.5 4.6-.2 9-.9 9.8-1.6 1.2-1 1.5-1 1.2.1-.2.7.3 1.5 1.1 1.8.9.3 1.1 0 .6-.8-.6-.9-.4-1.1.5-.5 1.2.7 3.3 1.2 10 2 1.4.2 2.5.4 2.5.5 0 .1.7.3 1.5.5.8.1 3.5.9 6 1.6 2.5.7 4.7 1.3 5 1.3.3.1 4.5 2.1 9.3 4.5 10.9 5.3 22 15.3 21.1 18.8-.4 1.2-.9 2.1-1.3 2-.3-.1-2.2 1.4-4.2 3.3-4.8 4.6-13.8 9.9-20.1 12-5.2 1.7-19.1 2-27.3.5-5.1-.8-19.6-5.2-24.3-7.3-2.1-.9-3.9-1.7-4.2-1.7-8.5-2.8-50.1-24.2-51.6-26.6-.3-.5-.9-.7-1.4-.4-.4.3-1.3-.1-1.9-.9-.9-1-.7-1.7.5-2.7 1.5-1.2 1.6-1.1 1 1.1-.6 1.9-.5 2.1.3 1 .7-1 1.1-1.1 1.1-.3 0 .7.6 1.2 1.3 1 .6-.1 1.1.4 1 1-.3 1.5 1.3 1.7 2.2.3.4-.6 1.1-.8 1.6-.4.5.3 2.1-.2 3.4-1 1.9-1.2 2.5-1.3 2.5-.4 0 1 .2 1 .9 0 .4-.8 1.1-1.3 1.5-1.3 2.2.3 2.7-.1 2.1-1.7-1-2.6-1.5-5.6-.8-4.8.8.8 3.3-1.3 3.3-2.8 0-.6-.4-.5-.9.3-.6.9-1.1 1-1.5.2-.4-.6-.3-1.1.2-1.1 1.2 0 1.1-3.2-.2-4.9-.9-1.2-.8-1.3.2-.7 1.1.7 1.2.4.3-1.2-.8-1.5-.7-2.1.4-2.6.8-.3 1.7-.1 2 .4.8 1.3 2.5 1.3 2.5-.1 0-.5-.4-.8-.9-.4-.5.3-1.2.1-1.6-.4-.3-.6.3-.8 1.3-.6 1 .2 1.9-.2 1.9-.9 0-.8-1-1.1-2.6-.9-2 .4-2.3.2-1.1-.6.8-.5 1.7-.8 2.1-.5.4.2 1.1-.1 1.5-.7.4-.7.3-.9-.4-.5s-1-.1-.7-1.4c.3-1.3 0-1.8-.7-1.4-.7.4-.8.2-.4-.5.4-.6 1.2-.8 1.8-.5.7.5.8.2.3-.6-.6-.9-.4-1.1.5-.5.9.6 1.1.4.5-.5-.5-.9-.4-1.1.4-.6.6.4.9 1.2.6 1.7-.4.5-.2.9.4.9 1.5 0 2.4-2 .9-2-.8-.1-.6-.6.5-1.5 1.1-.7 2.5-1.1 3.3-.8.8.3 1.4 0 1.4-.7s-.8-1-1.9-.7c-1.4.3-1.8.1-1.4-.9.3-.8.8-1.2 1.2-1 .4.3 1.3.1 2-.3.9-.6 1-1.1.2-1.5-.6-.4-1.1-.2-1.1.4 0 .6-.4.9-.9.6-1-.7-6.1 1.6-6.1 2.7 0 .5-.4.6-.9.3s-1.4.1-2.1.9c-.6.7-1.8 1.1-2.6.8-1.2-.5-1.9.7-1.5 3 .1.4-1 .5-2.4.3-1.4-.3-2.4-.2-2.1.2.2.4-.2 1.3-1 2s-1.4 1-1.4.6c0-.3-.6-.1-1.3.5-.8.6-1.7.8-2 .5-.3-.4-1.2.5-1.8 2-.9 2-1.5 2.3-2.1 1.4-.6-.9-.7-.5-.3.9.5 1.7.2 2.3-.9 2.3-.9 0-2.3 1.1-3.2 2.5-.9 1.4-2 2.2-2.5 1.9-1.8-1.1-2.9.7-1.8 2.9 1.8 3.3 4.9 5 4.9 2.6 0-.5-.4-.8-.9-.4-1.1.6-4.4-3.6-3.5-4.4.3-.3 1.2.3 2 1.3.7 1.1 1.7 1.6 2.1 1.2.4-.4.1-1.1-.6-1.5-.8-.5-.9-1.1-.3-1.5 1.5-.9 3.1 1.7 2.8 4.6-.2 1.5.1 3.2.5 4 .7 1 .9 1 .9-.1s.4-.9 1.5.5c1.9 2.5 1.9 4 0 2.4-.9-.7-1.9-1-2.2-.6-.4.4-1.3-.4-2-1.6-.7-1.3-1.2-1.7-1.3-1.1 0 .7-.5 1.3-1.1 1.3-.5 0-.8-.4-.4-.9.3-.6-.1-1.3-.8-1.8-.8-.4-1.8-1.6-2.4-2.7-.9-1.6-1.1-1.7-1.6-.2-.4 1-.3 1.5.1 1.3.7-.4 4.2 2.8 4.2 3.8v1.6c0 .8.5.8 1.5-.1 1.8-1.5 2 .1.3 1.8-1.6 1.6-2.8 1.5-2.8-.3 0-.9-.7-1.8-1.5-2.1-.8-.4-1.2-1-1-1.5.3-.5-.6-1.1-2-1.5-1.3-.3-2.3-1-2-1.4.3-.5.1-1.1-.4-1.4-.5-.4-.8.2-.7 1.1.2.9.9 1.9 1.6 2.1 1.4.5 5 3.9 5 4.8 0 .7-6.4-2.9-6.8-3.9-.2-.4-.8-.5-1.3-.1-.5.3-.9 0-.9-.7s-.3-1-.6-.7c-.3.3-6.7-2.9-14.2-7.1-17.7-10-32.3-17-48-23.3-12.3-4.9-25.8-9.6-29.5-10.3-1-.2-2.7-.7-3.7-1-1-.3-2.7-.7-3.7-.9-4.6-.9-11-2-13.3-2.3-3.3-.5-24.8-1.2-25.2-.8zm212.2 9.7c0 .4-.6.8-1.4.8-.8 0-1.7-.4-2-.8-.2-.4.4-.8 1.5-.8 1 0 1.9.4 1.9.8zm7.4.4c.3.8.2 1.2-.4.9-.6-.3-1-1-1-1.6 0-1.4.7-1.1 1.4.7zm8.6-.1c-.5.7-.8 1.4-.5 1.7.3.2-.2.5-1 .5-1 0-1.2-.4-.5-1.2.5-.7.8-1.4.5-1.7-.3-.2.2-.5 1-.5 1 0 1.2.4.5 1.2zm10-1.1c0 .3-.4.8-1 1.1-.5.3-1 .1-1-.4 0-.6.5-1.1 1-1.1.6 0 1 .2 1 .4zm-21.9 1.6c.9-1.3 1-1.3.6 0-.2.8-1 1.5-1.7 1.5s-1.5-.7-1.7-1.5c-.4-1.3-.3-1.3.6 0 1 1.3 1.2 1.3 2.2 0zm-9 2.3c-1 .9-1.1.8-.5-.6.3-1 .9-1.5 1.2-1.2.3.3 0 1.1-.7 1.8zm4.9.7c0 .5-.7.6-1.7.3-1.2-.5-1.4-.3-.8.7.5.9.4 1.1-.4.6-.6-.4-.9-1.2-.6-1.7.8-1.2 3.5-1.2 3.5.1zm8.5 0c-.4.6-.1 1.9.6 2.8 1.2 1.6 1.2 1.6-.5 0-1.6-1.4-1.5-3.8 0-3.8.3 0 .2.5-.1 1zm16.9-.2c.2.4-.5.9-1.7.9-1.7.2-1.9 0-.7-.7 1.8-1.2 1.8-1.2 2.4-.2zm-23.9 2.1c-.3.6-1.1 1.1-1.6 1.1s-.4-.6.3-1.4c1.4-1.6 2.4-1.3 1.3.3zm-5.9.9c.1.7 0 .8-.3.2-.8-1.7-2.3-1.1-1.6.7.5 1.4.3 1.5-.7.6-.7-.6-.9-1.6-.5-2.3.8-1.3 2.8-.8 3.1.8zm-27.6 3.3c-.7 1.1-1.4 1.8-1.8 1.5-.3-.4-1.6.4-2.9 1.6-1.7 1.5-2 2.5-1.2 3.4.8.9.5 1.5-1 2.3-1.1.6-1.8 1.7-1.5 2.5.3.7-.2 1.6-1 1.9-.9.4-1.3 1.3-1 2.2.3.8.1 1.5-.5 1.5s-1.1.5-1.1 1.1c0 .5.4.8.9.4 1.5-.9 2.3 1.3 1.2 3.3-.7 1.3-.6 2.3.2 3.1.9 1 .9 1.2-.2.9-1.7-.4-2.4 3.2-.9 4.9 1.1 1.3 1 1.4-1.9 1.7-1 .1-2.7.7-3.8 1.3-1.1.6-2.9 1-4 .9-2.7-.2-6.2-2.3-5.3-3.2.4-.4 1.3-.2 2 .4.9.7 1.8.7 3.2-.3 1-.8 2.4-1.1 3.1-.9.7.3 1.6-.4 2-1.5.4-1.3 1.2-1.8 2.3-1.5 1.4.5 1.4.4.2-.4-.8-.6-1.8-.8-2.2-.6-1 .6-1.1-1-.1-1.9.3-.4 1.3-.1 2.1.6 1.3 1 1.4.9.7-.2-.6-1-.4-1.2.6-.6 1.1.6 1.2.5.2-.6-1.6-1.6-1.7-3-.2-2.6.6.1 1.4-.5 1.6-1.3.4-1.3.3-1.3-.6 0-.6.8-1.1 1-1.2.5-.6-4.3-.5-5.4.5-4.9.6.3.3-.1-.7-.9-1.7-1.4-1.7-1.5 0-2.2 1-.5 2.2-.7 2.6-.6.5.1.6-.3.3-.8s-1.7-.8-3.1-.6c-3.3.3-4.1-1.2-1.9-3.6 1.1-1.2 2-1.6 2.4-.9.7 1.1 2.7-.5 2.9-2.3.1-.4.3-.6.5-.5.2.2 1.3-.6 2.5-1.6 1.2-1.1 2.1-1.6 2.1-1.2 0 .4 1 0 2.2-.8 2.9-2.1 3.1-2 1.8.5zm22-.6c0 .8-.2 1.5-.4 1.5s-.6-.7-1-1.5c-.3-.8-.1-1.5.4-1.5.6 0 1 .7 1 1.5zm18 .8c0 .6-.3.7-.7.4-.3-.4-1.1-.3-1.7.3-.8.6-1.2.3-1.2-.9s.6-1.7 1.8-1.3c1 .2 1.8.9 1.8 1.5zm23.7-.8c0 .8-.4 1.2-.9.9-.5-.3-.6-1-.3-1.5.9-1.3 1.2-1.1 1.2.6zm-39.8 2.1c-.6.8-1.7 1.4-2.3 1.4-.6 0-.3-.5.7-1.1.9-.6 1.4-1.5 1.1-2.1-.4-.7-.2-.8.5-.4.9.6.9 1.1 0 2.2zm4.1-1.1c-.7.9-1.5 1.3-1.9 1-.3-.3.1-1 .9-1.5 2.1-1.4 2.4-1.2 1 .5zm6 1c0 .2-.7.1-1.7-.2-1.1-.4-1.4-.3-.9.5.5.8.2 1-.8.6-1.1-.4-1.4 0-1.1 1.5.2 1.1-.1 2.4-.7 2.7-.7.4-.8.2-.4-.4.4-.7.3-1.2-.3-1.2-.5 0-1.8-.3-2.8-.7-1.6-.6-1.6-.5-.4 1 .7.9.9 1.7.3 1.7-1.2 0-2.3-2.6-1.5-3.4.3-.3 1.7-.3 3.1.1 1.7.4 2.3.2 1.8-.6-.4-.6 0-1.4.8-1.7.9-.3 1.3-1.1 1-1.6-.4-.6.3-.5 1.5.1 1.1.7 2.1 1.4 2.1 1.6zm-15 .5c-.8.5-1.7.7-1.9.4-.3-.3.1-.9.9-1.4.8-.5 1.7-.7 1.9-.4.3.3-.1.9-.9 1.4zm34.5 0c.3.5.1 1-.4 1-.6 0-1.1-.5-1.1-1 0-.6.2-1 .4-1 .3 0 .8.4 1.1 1zm4.5-.4c0 .8-1.9 1.3-2.4.6-.3-.5.1-.9.9-.9s1.5.2 1.5.3zm-37.5 3.6c-1.9 1.1-3 .5-2.1-1.1.4-.6 1.4-.7 2.2-.4 1.5.5 1.4.7-.1 1.5zm16.6-.5c1.1 1.5 1.1 1.6 0 .6-.7-.6-2-.9-2.9-.6-1 .4-1.3.2-.8-.5 1-1.7 2.1-1.5 3.7.5zm7.9-1.4c0 .2-1 1.2-2.2 2.3l-2.3 1.9 1.9-2.3c1.8-2.1 2.6-2.7 2.6-1.9zm9 2.7c0 .5-.2 1-.4 1-.3 0-.8-.5-1.1-1-.3-.6-.1-1 .4-1 .6 0 1.1.4 1.1 1zm-31.3 1.5c-.7 1.6.9 3 1.6 1.5.3-.6.4-.5.3.2-.4 2-2.1 1.9-3.4-.3-.8-1.2-.9-1.8-.3-1.4.6.3 1.1.1 1.1-.4 0-.6.3-1.1.6-1.1s.4.7.1 1.5zm9.3.5c0 .5-.2 1-.4 1-.3 0-.8-.5-1.1-1-.3-.6-.1-1 .4-1 .6 0 1.1.4 1.1 1zm27.5-.1c.3.5.2 1.2-.3 1.5-.5.3-.9-.1-.9-.9 0-1.7.3-1.9 1.2-.6zm-76.9 1c-.7 1 2.2 2.5 4.4 2.2 1.1-.1 1 .1-.3.9-.9.6-1.4 1.6-1.1 2.2 1 1.5 1.2 9.8.3 9.2-1-.6-2.4 1.7-2.4 4 0 2.7-5.1 3.1-6.6.5-.5-1.1-1.4-1.7-1.8-1.5-.9.6-.8-3.1.2-4 .4-.4.7-.1.7.7 0 .8.4 2 .9 2.8.8 1.2 1.2 1.2 2.5.2 1-.8 1.6-.9 1.6-.3 0 .6-.8 1.6-1.7 2.1-1 .6-1.3 1.1-.7 1.1.5 0 1.5-.5 2.2-1.2.9-.9 1.2-.9 1.2.2 0 .7.3 1.1.6.8.3-.4 0-1.6-.6-2.8-1-1.8-1-2.1.2-1.4.7.4.5-.2-.4-1.3-2.2-2.4-2.4-4-.3-2.3.8.7 1.5.9 1.5.4s.5-.2 1 .6 1 1 1 .5c0-.6-.7-2.1-1.6-3.3-1.4-2.1-1.4-2.3-.1-2 .9.2 1.6-.1 1.7-.6 0-.6-.6-1.1-1.5-1.2-.8-.1-1.5.2-1.5.8 0 .6-.8.2-1.7-.9-1-1-1.3-1.2-.8-.4.8 1.1.6 1.3-.5.9-1.8-.6-2.6 2.7-.9 3.7 1.1.8.2 2.5-1.3 2.5-.6 0-.8-.3-.5-.6.3-.4.2-1.4-.2-2.3-.6-1.1-.1-3 1.6-6.1 1.3-2.5 2.2-3.8 2-3-.3.9.1 2.3.8 3.3 1 1.4 1.4 1.5 3.1.2 1.8-1.4 1.8-1.4-.2-.9-1.8.5-2.1.2-1.9-1.8.3-2.7.3-2.8 1.1-2.8.3 0 .3.4 0 .9zm45.4.2c0 .5.5.7 1.2.3.7-.4.8-.3.4.5-.6.9-1.1.9-2.2 0-1.7-1.4-1.8-1.9-.4-1.9.6 0 1 .5 1 1.1zm-8 .3c0 .2-.7.6-1.5 1-.8.3-1.5.1-1.5-.4 0-.6.7-1 1.5-1s1.5.2 1.5.4zm12.1 1.5c-.8.5-1 1.4-.6 2.2.6 1.1.5 1.1-.5.2-1.4-1.2-.6-3.3 1.3-3.3.8 0 .7.3-.2.9zM266 144c0 .5-.4 1-1 1-.5 0-1-.5-1-1 0-.6.5-1 1-1 .6 0 1 .4 1 1zm9 2.6c0 .2-1.1-.2-2.5-.8-1.4-.6-2.5-1.5-2.5-2s1.1-.1 2.5.8 2.5 1.8 2.5 2zm6.4-2.1c-1 .8-2.3 1.5-2.8 1.5-.6 0-.1-.7 1-1.5 1-.8 2.3-1.5 2.8-1.5.6 0 .1.7-1 1.5zM269 146c0 .5-.4 1-1 1-.5 0-1-.5-1-1 0-.6.5-1 1-1 .6 0 1 .4 1 1zm15.7.7c0 .9-.4 1-1.4.2-.7-.6-1.3-1.2-1.3-1.4 0-.1.6-.2 1.3-.2.8 0 1.4.6 1.4 1.4zm15.8-.8c-.9.8-3.6 1-3 .2.2-.4 1.1-.8 2-.8.8 0 1.3.3 1 .6zM265 147c.8.5 1.1 1 .5 1-.5 0-1.7-.5-2.5-1s-1-1-.5-1c.6 0 1.7.5 2.5 1zm7.7.6c-.3.3-1.2.4-1.9.1-.8-.3-.5-.6.6-.6 1.1-.1 1.7.2 1.3.5zm7.3 0c0 .8-1.9 1.3-2.4.6-.3-.5.1-.9.9-.9s1.5.2 1.5.3zm-60.5 1.4c-.4.6-.1 1.7.5 2.5.7.9.8 1.5.2 1.5-1.5 0-3.5-2.8-2.7-4 .3-.5 1.1-1 1.6-1 .6 0 .7.5.4 1zm50.7.4c.7-.4.8-.2.4.5-.9 1.3-2.6.5-2.5-1.2 0-.9.2-.8.6.1.2.6 1 .9 1.5.6zm6.4 1.2c.1.9 0 1.3-.4 1-.3-.4-.7-1.4-.8-2.2-.1-.9 0-1.3.4-1 .3.4.7 1.4.8 2.2zm-49.8-.4c1.6 1.6 1.5 3.1 0 2.1-.7-.4-1.7-.8-2.2-.8-.5 0-1.1-.6-1.3-1.3-.6-1.5 1.9-1.6 3.5 0zm39.1.5c-1.2 1.5-1.2 1.6.6 1 1.4-.5 1.2-.1-.8 1.4-2.3 1.8-2.6 2.4-1.5 3.7 1.2 1.4 1.1 1.4-.9.2-2-1.3-2-1.5-.5-2.6.9-.7 1.8-1.7 1.8-2.3.1-.6.2-1.6.3-2.1 0-.6.6-1 1.2-1 .8 0 .7.6-.2 1.7zm22.6-.7c.3.5.1 1-.4 1-.6 0-1.1-.5-1.1-1 0-.6.2-1 .4-1 .3 0 .8.4 1.1 1zm6 0c.3.5.1 1-.4 1-.6 0-1.1-.5-1.1-1 0-.6.2-1 .4-1 .3 0 .8.4 1.1 1zm-22 2c-2.7 1.2-4.3 1.2-2.5 0 .8-.5 2.2-.9 3-.9 1 0 .8.3-.5.9zm12.5-.6c0 .3-.4.8-1 1.1-.5.3-1 .1-1-.4 0-.6.5-1.1 1-1.1.6 0 1 .2 1 .4zm-13 3.6c-.6 1.1-1.3 2-1.6 2-.2 0 0-.9.6-2s1.3-2 1.6-2c.2 0 0 .9-.6 2zm-46.6-.1c.3.5-.1 1.4-.8 2-1.6 1.3-3.2-.2-2.1-1.9.8-1.2 2.2-1.3 2.9-.1zm42.5.8c-.7 1-1.4 1.9-1.5 2.1-.1.2-.4-.4-.8-1.3-.3-.9-.2-1.3.4-1 .6.3 1 .1 1-.4 0-.6.5-1.1 1.1-1.1.8 0 .7.6-.2 1.7zm10.5-.3c-.3.9-1.2 1.2-2.2.9-1.5-.6-.9-1.1 2.5-2.2.1-.1 0 .5-.3 1.3zm-15.9 2.6c.8 1.3-.5 1.3-2.5 0-1.3-.8-1.3-1 .2-1 .9 0 2 .4 2.3 1zM138 201c-.9.6-.6 1 .9 1.5 1.1.3 2.1 1.1 2.1 1.7 0 .6-.6.6-1.5-.2-1.2-1-1.5-1-1.5 0s-.3 1-1.5 0-1.5-1-1.5 0c0 .8-.3 1.1-.6.7-.9-.8 2.9-5.6 4-5 .4.3.3.9-.4 1.3zm-6.6 1.2c-.3.4-.1.8.5.8.5 0 .8 1.4.6 3-.3 2.5.1 3.3 2.6 4.5 3 1.6 4.1 3.2 1.4 2.2-1.8-.8-3.1 1.1-1.7 2.5 1.4 1.4-2 5.1-4 4.3-.8-.3-1.4-1.9-1.4-3.5 0-2.4.3-2.9 1.7-2.5 2.2.7 3.5-1.3 2-2.8-.9-.9-1.1-.8-.6.5.4 1 .3 1.8-.3 1.8s-.9-.9-.7-1.9c.4-2 .3-2-3-.1-1.8 1-3.6 1.7-3.9 1.4-.3-.2-.3-.1 0 .3.5.8.9.9 3.5 1.2.5 0 .7.6.4 1.1-.4.7-1.3.6-2.6-.1-1.8-.9-1.9-.8-1.1.8.5 1 .8 2.3.5 2.9-.2.6.3 1.1 1.1 1.1 1.1 0 1.3-.5.5-1.8-.7-1.4-.6-1.7.4-1.4 2 .8 1.9 4.6-.1 4.3-2.4-.4-2.3 3.3.1 5.1 1.5 1.1 1.6 1.5.6 2.2-1 .6-1.1.9-.1.9.6 0 1.2.5 1.2 1.2 0 .6-.9.3-2-.7-1.9-1.8-2.6-1.1-2.1 1.9.3 1.5-2.2 2.6-3.5 1.5-.9-.7-1.6-.4-2.4 1.1-.6 1.1-1.6 1.8-2.1 1.4-.6-.3-1.9.2-3 1.2-2.4 2.1-5.6 2.9-4 1 .6-.7.8-1.5.5-1.9-.8-.8 3.5-2.9 4.6-2.2 1.4.8 2.3-1.4 1.1-2.9-.8-.9-.7-1.8.3-3.1.8-1.1 1.2-2.6.9-3.5-.3-1-.1-.9.7.3.6.9 1.6 1.4 2.2 1.1.6-.4.9-.1.6.7-.3.8-1.2 1.3-2.2 1.1-.9-.2-1.6.2-1.6.8 0 .5.6.9 1.3.7.6-.1 1.1.4 1 1-.2.7 0 1.3.5 1.4.4 0 1.5.2 2.5.4.9.2 1.5-.1 1.1-.6-.3-.5-.9-.7-1.4-.4-.5.3-.8-.4-.7-1.5.1-2 1.2-2.7 2-1.3.2.5.2.2 0-.5-.2-.9.4-1.1 2-.7 2 .5 2 .5-.3-.9-1.5-1-1.9-1.5-1-1.6 1.3 0 1.3-.1 0-1-.8-.5-1.1-1-.7-1 .4 0 .3-1-.4-2.1-.9-1.7-.8-2 .3-1.4.7.5 1 .5.6.1-.3-.4-1-.6-1.4-.4-1.1.4-1.4 2.8-.4 2.8.9 0 .7 2.6-.3 3.6-.4.4-.7.1-.7-.7 0-1.2-.2-1.1-1 .1-.8 1.1-.9.9-.6-1.2.3-1.6-.1-3.2-1-3.9-1.1-.9-1.2-1.5-.3-2.5 1.6-2 3.2-1.7 2.4.3-.4 1.3-.3 1.5.5.7.6-.6 1.2-1.9 1.4-2.7.1-.9 1.2-2.8 2.5-4.1l2.3-2.5-2.3-3.3c-1.4-2-1.7-2.8-.7-2 1.7 1.3 4.3.8 3.4-.7-.3-.4.6-.7 1.9-.7 1.3 0 2.1.4 1.9.8zm-30.7 6.3c0 .8-.4 1.5-.9 1.5-.4 0-.8-.7-.8-1.5s.4-1.5.8-1.5c.5 0 .9.7.9 1.5zm-6.4 3.3c-.3 1.4.1 1.9 1.9 1.8 1.6-.1 2.2.4 1.9 1.4-.2.8-.4 2.5-.4 3.8.1 2.2 0 2.2-1.3.5-1.5-2.1-1.8-3.7-.5-2.9.5.3 1.2-.1 1.5-1 .4-1.1 0-1.4-1.7-1.2-1.6.2-2.2-.2-2.2-1.7 0-1.1-.7-2.6-1.5-3.3-1.3-1.1-1.2-1.1.7-.3 1.4.7 2 1.7 1.6 2.9zM97 209c0 .5-.2 1-.4 1-.3 0-.8-.5-1.1-1-.3-.6-.1-1 .4-1 .6 0 1.1.4 1.1 1zm-18 1c0 .5-.5 1-1.1 1-.5 0-.7-.5-.4-1 .3-.6.8-1 1.1-1 .2 0 .4.4.4 1zm7-.5c0 .2-.6.8-1.3 1.4-1 .8-1.4.7-1.4-.2 0-.8.6-1.4 1.4-1.4.7 0 1.3.1 1.3.2zm2.4 2.3c.3.5-.1.9-.9.9s-1.2-.4-.9-.9c.3-.4.7-.8.9-.8.2 0 .6.4.9.8zm12.5.2c-.6.5-1.8.6-2.6.3-1.9-.8-1.6-1.1 1.3-1.1 1.7 0 2.2.3 1.3.8zm-10.8 2.3c-1 .9-1.1.8-.5-.6.3-1 .9-1.5 1.2-1.2.3.3 0 1.1-.7 1.8zm-11.9 1.2c.3 0 .9.3 1.3.7.4.3 0 .5-.9.4-.9-.1-2.2-.8-2.9-1.6-1-1-.9-1.1.3-.4.8.5 1.8.9 2.2.9zm6.7-.2c-.2.1-1.3.9-2.4 1.7-1.9 1.4-1.9 1.4-.6-.3.7-.9 1.8-1.7 2.4-1.7.6 0 .8.1.6.3zm8.1 1.2c0 .8-.2 1.5-.4 1.5s-.6-.7-1-1.5c-.3-.8-.1-1.5.4-1.5.6 0 1 .7 1 1.5zM68.5 218c.3.5.1 1-.4 1-.6 0-1.1-.5-1.1-1 0-.6.2-1 .4-1 .3 0 .8.4 1.1 1zm11.5 1.5c0 .2-.6.8-1.3 1.4-1 .8-1.4.7-1.4-.2 0-.8.6-1.4 1.4-1.4.7 0 1.3.1 1.3.2zm6.4 1.1c.3.8 0 1.6-.6 2-.7.5-.8.2-.3-.6.6-.9.4-1.2-.7-.8-.8.4-1.5.1-1.5-.6 0-1.7 2.5-1.6 3.1 0zm7.5-.6c-.6.5-1.8.6-2.6.3-1.9-.8-1.6-1.1 1.3-1.1 1.7 0 2.2.3 1.3.8zM82 221.4c0 .2-.8 1-1.7 1.7-1.6 1.3-1.7 1.2-.4-.4 1.3-1.6 2.1-2.1 2.1-1.3zm-4.8 3c-1.1 1.8-1.2 4-.2 5.1.6.8.5 1.2-.3 1.2-.9 0-1.3-1.3-1.3-3.7 0-2.2.5-3.7 1.3-3.7.7 0 .9.5.5 1.1zm5.9 1.8c-1 1.1-1.1.9-.5-.6.6-1.5.4-1.7-.6-1.1-.9.6-1.1.4-.5-.4.5-.9 1-1 1.8-.2s.7 1.4-.2 2.3zm-23 1.1c-1 .9-1.1.8-.5-.6.3-1 .9-1.5 1.2-1.2.3.3 0 1.1-.7 1.8zm8.9-1.8c0 .7-3 1.3-3.4.7-.3-.4.4-.9 1.5-.9 1-.1 1.9 0 1.9.2zm19.4 1.1c.3.8.2 1.2-.4.9-.6-.3-1-1-1-1.6 0-1.4.7-1.1 1.4.7zm-5.9 2.2c-.3.3-1.1 0-1.8-.7-.9-1-.8-1.1.6-.5 1 .3 1.5.9 1.2 1.2zm3.5-.8c0 .5-.5 1-1.1 1-.5 0-.7-.5-.4-1 .3-.6.8-1 1.1-1 .2 0 .4.4.4 1zm7 1c.8.5 1.1 1 .5 1-.5 0-1.7-.5-2.5-1s-1-1-.5-1c.6 0 1.7.5 2.5 1zm-26 1c0 .5-.5 1-1.1 1-.5 0-.7-.5-.4-1 .3-.6.8-1 1.1-1 .2 0 .4.4.4 1zm6.5 0c.3.6-.1.7-.9.4-1.8-.7-2.1-1.4-.7-1.4.6 0 1.3.4 1.6 1zm15.5 0c0 .5-.4 1-1 1-.5 0-1-.5-1-1 0-.6.5-1 1-1 .6 0 1 .4 1 1zm-3 2.7c0 1.3.4 1.3 2.6-.2 1.4-.9 2.7-1.5 3-1.3.2.2-.9 1.2-2.5 2.1-2.8 1.6-2.9 1.6-4.5-.8-1.4-2.1-1.4-2.4-.1-1.9.8.4 1.5 1.3 1.5 2.1zm-5.6-.9c.2.4-.5.9-1.7.9-1.7.2-1.9 0-.7-.7 1.8-1.2 1.8-1.2 2.4-.2zm13.3 1.7c-.7 1.7-2.7 2.1-2.7.4 0-.5.5-.7 1-.4.6.3 1-.2 1-1.1 0-1 .3-1.5.6-1.1.4.3.4 1.3.1 2.2zm-11.6.8c-1 .9-1.1.8-.5-.6.3-1 .9-1.5 1.2-1.2.3.3 0 1.1-.7 1.8zm-7.3 2.2c-.3.3-.9-.2-1.2-1.2-.6-1.4-.5-1.5.5-.6.7.7 1 1.5.7 1.8zm-22.7.2c1.3 1.6 1.2 1.7-.3.4-1-.7-1.8-1.5-1.8-1.7 0-.8.8-.3 2.1 1.3zm32.9-.2c0 .8-.2 1.5-.4 1.5s-.6-.7-1-1.5c-.3-.8-.1-1.5.4-1.5.6 0 1 .7 1 1.5zm-5-.1c0 .2-.7.7-1.6 1-.8.3-1.2.2-.9-.4.6-1 2.5-1.4 2.5-.6zm2.5 1.7c-.4.5-1.4.8-2.3.8-1.5-.1-1.5-.2.1-.6.9-.2 1.4-.9 1.1-1.5-.4-.7-.2-.8.5-.4.6.4.9 1.2.6 1.7zm-13.4.2c-.6.8-.7 1.8-.3 2.2.4.5.1.5-.6.1-1-.6-1-1.1-.1-2.2.6-.8 1.4-1.4 1.6-1.4.3 0 0 .6-.6 1.3zm-4.2 1c.8 1 .7 1.4-.2 1.4-.8 0-1.4-.6-1.4-1.4 0-.7.1-1.3.2-1.3.2 0 .8.6 1.4 1.3zm9.7.7c0 1.2-.4 1.6-.9 1.1s-.6-1.4-.3-2c1-1.5 1.2-1.4 1.2.9zm11.9 0c-.3.5.3 1 1.4 1 1.2 0 2.1.4 2.1 1 0 1.3-4.3-.4-4.8-1.8-.2-.7.1-1.2.8-1.2.6 0 .8.4.5 1zm-30 2c.3.5.1 1-.4 1-.6 0-1.1-.5-1.1-1 0-.6.2-1 .4-1 .3 0 .8.4 1.1 1zm16.2.6c-.3.3-1.2.4-1.9.1-.8-.3-.5-.6.6-.6 1.1-.1 1.7.2 1.3.5zm5.7.9c.3.8.1 1.5-.4 1.5-.6 0-1-.7-1-1.5s.2-1.5.4-1.5.6.7 1 1.5zm-2.9.5c-.3.5-1.2 1-1.8 1-.7 0-.6-.4.3-1 1.9-1.2 2.3-1.2 1.5 0z"/><path d="M239 134.5c-.7.8-1.7 1.2-2.4.8-.6-.3-.8-.2-.3.2 1 1.2-2.2 4.5-3.8 3.9-.7-.3-1.6 0-2.1.7-.4.8-.3 1 .4.5.6-.4 2.1-.2 3.2.4 1.6.9 2.2.8 2.6-.5.3-.8 1.1-1.2 1.8-.8.7.3.6.1-.1-.7-1-1.1-.9-1.8.9-3.7 1.2-1.3 1.9-2.3 1.6-2.3-.3 0-1.1.7-1.8 1.5zm-2.7 5c-.3.9-.8 1.4-1 1.1-.3-.3-.2-.9.2-1.5.9-1.6 1.5-1.3.8.4zM230 162.5c-.7.9-1.8 1.4-2.5 1.1-.6-.2-1.2.2-1.2 1 0 1.2.3 1.2 2.1.1 1.2-.8 2.9-1.3 3.9-1.1 1.5.2 1.6 0 .6-1.2-1.4-1.7-1.4-1.7-2.9.1zM127.7 203.8c-1.6 1.7-1.6 2.1-.2 3.2 1.3 1.1 1.2 1.5-.8 3.2l-2.2 1.9 2.7-1.7c1.5-.9 2.5-2.1 2.1-2.7-.4-.6 0-.8.9-.5 1 .4 1.4 0 1.3-1.3-.2-3.2-2-4.2-3.8-2.1zm2.2 1.8c-.6.7-1.5 1.1-2.1.8-.5-.3-.4-1.2.3-2 .6-.7 1.5-1.1 2.1-.8.5.3.4 1.2-.3 2zM123 215.9c0 .6.4 1.3 1 1.6.6.3.7-.1.4-.9-.7-1.8-1.4-2.1-1.4-.7zM131 215.8c0 .5.7.9 1.5.9s1.2-.4.9-.9c-.3-.4-.9-.8-1.5-.8-.5 0-.9.4-.9.8zM118.6 216.9c-.3.5.2 1.5 1.2 2.2 1.5 1.2 1.6 1.2.5-.2-.7-.9-1-1.9-.6-2.2.3-.4.4-.7 0-.7-.3 0-.8.4-1.1.9zM117 230.5c.6.7.7 2.1.4 3.1-.4 1.1-.4 1.6.1 1.2 1.4-1.3 1.4-5.5-.1-5.5-1 0-1.1.4-.4 1.2zM113.5 235c-.4.6-1 .8-1.4.6-.4-.3-.8.1-.8.9 0 1.3.4 1.2 1.9-.2 1.8-1.6 2.2-2.3 1.4-2.3-.3 0-.8.5-1.1 1zM266 122c0 .5-.3.9-.7.9-1.8-.3-3.3.2-3.3 1 0 .5 1.1.8 2.5.8 1.8 0 2.5-.5 2.5-1.8 0-1.1-.2-1.9-.5-1.9s-.5.4-.5 1zM268 123.1c0 1.1.4 1.8 1 1.4.5-.3.7-1.2.3-2-.7-2.1-1.3-1.9-1.3.6zM259.6 123.7c-.4.5-1.1.8-1.4.9-3.7.3-7.3 1.8-6.8 2.9.2.7.2 1.6-.2 1.9-.9 1-1 4.6 0 4 .5-.3.8-.2.7.3-.3 1.8.1 3.6.8 3 1-1 1.3-5.8.3-5.2-.5.3-1.2 0-1.6-.6-.4-.7-.3-.9.3-.6.6.4 1.3 0 1.7-.8.3-.8 0-1.5-.6-1.5-1.5 0-.4-1.1 1.4-1.4.7-.1 2-.6 2.8-1.1 1-.5.9-.2-.3 1.2-1.4 1.6-1.5 2.2-.5 2.6 1 .4 1 .6.1.6-1.8.1-1.6 2.6.2 4.1.8.7 1.2 1.6.9 2.1-.3.5-.1.9.5.9 2 0 2-1.7-.1-3.4-1.4-1.3-1.7-2.1-1-2.8.8-.8 1.5-.8 2.6.1 1.8 1.5 2.4.5 2.1-3.7-.2-3.6-.8-4.6-1.9-3.5zm.3 3.4c-1.2.8-1.1 1.1.1 1.9.9.6 1 1 .3 1-.6 0-1.4-.4-1.7-.9-.9-1.4.5-4.2 1.6-3.5.6.4.5 1-.3 1.5z"/><path d="M246.9 133.5c-.1.3-.2.8-.3 1.2-.3 2-1.9 3.4-3.2 2.9-1.5-.6-2.7.7-1.7 1.8.4.4.8 2.4.9 4.5.1 3.7 0 3.9-2.6 3.6-2.6-.4-2.8-.1-2.6 2.9.1 1.8.6 3.8 1 4.5.5.8-.1 2.2-1.5 3.7-1.2 1.3-1.7 2.4-1 2.4s1 .4.7.8c-.2.4-.1 1.4.5 2.2.5 1 .9 1.1.9.3 0-.7.7-1 1.6-.6.9.3 2 0 2.4-.7 1-1.6.2-4.2-1.1-3.5-.4.3-.6 1.2-.2 2 .3.8.1 1.5-.4 1.5-1.2 0-3.3-2.2-3.3-3.4 0-.5.6-.3 1.3.5.6.8 1.1 1.2 1 1-.2-.2.2-1 .7-1.7 1.2-1.4 1-3.6-.5-4.6-.6-.5-.5-.8.4-.8 1.1 0 1.1-.3.1-1.5-.9-1-.9-1.5-.1-1.5.6 0 1.1.5 1.1 1.2 0 .6.3.8.7.4.4-.4-.3-1.6-1.7-2.7-2.5-2-2.5-2-.1-.9 1.9 1 2.2 1 1.6-.2-.6-1-.5-1.1.6-.1 1.6 1.6 3.3 1.7 2.3.2-.3-.6.8-.3 2.6.6 3.9 2 3.4 4-1.1 4.1-5.3.2-5.4.3-3.3 1.9 1.9 1.5 1.9 1.5-.1.9-1.8-.5-1.8-.4-.3.6.9.6 1.5 1.7 1.2 2.5-.4.9 0 1.5.7 1.5 1.1 0 1.1.2-.1 1-1.2.7-1 .9.8.7 1.2 0 2.2-.5 2.2-.9 0-1.6-.5-2.3-1.4-2-.5.2-.6-.4-.3-1.1.3-.8.1-1.9-.5-2.5-1.6-1.6.8-2.4 3.7-1 1.8.8 2.2 1.4 1.3 2-.7.4-.8.8-.3.8.6 0 2.1-.9 3.5-2 2.4-1.9 2.4-2 .6-3.7-1.7-1.7-1.8-1.7-1.2.3.4 1.3.2 2.1-.6 2.1-1.7 0-1.5-6.7.2-7.7.8-.5.7-.9-.5-1.4-2.2-.8-2.7-.8-2.1.2.2.4.1 1.4-.4 2.1-1.1 1.9-3.1.4-2.3-1.7.6-1.4.4-1.5-.9-.4-1.3 1-1.8 1-2.4.1-.4-.7-.3-.9.2-.6.6.3 1-.5 1-1.8s-.4-2.2-.8-1.9c-.4.3-.5-.2-.1-1.1.5-1.3.7-1.4 1.4-.3.7 1 .9 1 1-.2.1-.8.1-1.9 0-2.3-.1-.5.4-.5 1-.1.8.5.9.3.4-.6-.6-.9-.4-1.1.5-.5.9.6 1.1.4.5-.5-.6-.9-.4-1.1.4-.6.9.6.8 1.3-.5 2.7-.9 1.1-1.4 2.2-1 2.6.4.5 1.2 0 1.7-.9.5-1 1.5-1.5 2.3-1.2.7.3 2.2-.3 3.4-1.3 2-1.7 2-1.9.5-3.3-1.5-1.3-1.6-1.3-1.1.2.6 1.5-.8 3.8-2.4 3.8-.4 0-.8-.6-.8-1.3 0-1.2-3.9-4.2-4.1-3.2z"/><path d="M254.5 138.6c-1.1.8-2.5 1.2-3.3.9-.7-.2-1 0-.7.5.6.9.1 1.2-3.4 1.4-.8.1-1.5.8-1.6 1.7-.2 1.1.6 1.6 2.9 1.7 1.7.1 4.1.3 5.3.4l2.3.2-2.4 2.1-2.5 2 3 2.3c2.2 1.8 2.9 2 2.9.8 0-.8-.9-1.8-2.1-2.1l-2.1-.7 2.1-2.2c3.2-3.4 2.4-6.5-.8-3.4-1 1.1-1.2 1-.9-.1.2-.7-.3-1.6-1.1-1.9-.8-.2-1.1 0-.8.5.3.5-.3.9-1.4.9-2.4 0-2.4-.3.2-1.6 1.3-.7 2.5-.8 3.2-.2.8.6 2 .2 3.5-1.3 1.8-1.7 2-2.4 1-2.8-.8-.2-2.3.2-3.3.9zm2.5.8c0 .2-.7.7-1.6 1-.8.3-1.2.2-.9-.4.6-1 2.5-1.4 2.5-.6zM215 147.5c-1.3 1.4-2.1 2.5-1.7 2.5.3 0 1.7-1.1 3.1-2.5 1.4-1.4 2.2-2.5 1.7-2.5-.4 0-1.8 1.1-3.1 2.5zM242.7 151.6c.6 1.7 2.3 1.9 2.3.3 0-.8.5-.7 1.5.1.9.7 1.8 1 2.2.6 1-.9-.1-1.6-3.4-2-2.3-.2-3 0-2.6 1zM152 200.3c0 .2.6 1 1.4 1.6 1.1.9 1.6.9 2.2-.1.4-.7.4-1-.1-.6-.4.4-1.4.3-2.2-.3-.7-.6-1.3-.9-1.3-.6zM151 204.2c0 .6.3.8.7.5.3-.4 1.1 0 1.7.7.8 1 1.7 1.1 3.1.5 1.9-.9 1.9-.9-.2-.5-1.2.2-2.4-.2-2.7-1-.7-1.7-2.6-1.9-2.6-.2zM121.5 207.1c-.4.5-1 .7-1.5.4-.5-.3-1.2 0-1.6.6-.5.8-.9.7-1.4-.2-.7-1-1.2-1-2.3-.1-.7.7-1.8.8-2.2.4-.5-.4-.5-.1-.1.5.4.7.2 1.3-.3 1.3-.6 0-1.1-.7-1.1-1.5s-.4-1.5-1-1.5c-.8 0-.8 2.5-.1 7.2 0 .4.9.5 1.9.2 1-.4 1.3-.3.6.3-2.1 1.6-.5 9.1 1.7 7.8.5-.4.6.2.2 1.1-.4 1.2-.8 1.4-1.1.5-.3-.8-.9-.6-1.8.8-.9 1.3-2.1 1.8-3.1 1.4-1.2-.5-1.4-.3-.7.8 1.3 2.1 1.4 3.9.2 3.9-.6 0-.7-.7-.4-1.6.4-1 .2-1.3-.6-.8-.6.4-.8.3-.5-.2.3-.6-.3-1.5-1.4-2.2-2.3-1.5-2.5-.5-.3 1.9.9 1.1 1.3 2.3.8 3.1-1.5 2.5-1.1 4.6.8 4.3 2.7-.6 3.9-1.5 3.3-2.6-1.1-1.6.5-3.1 2-1.9.9.8 1.5.8 2 0 .4-.6.1-.9-.5-.8-.7.2-1.4-.7-1.6-2-.4-2-.1-2.2 1.8-1.6 1.3.3 2 .3 1.6-.1-.4-.4-.3-1.6.2-2.6.8-1.3.6-2-.7-2.8-1-.6-1.4-1.1-1-1.1.4 0 .3-.9-.3-2-.9-1.6-.6-2.2 2-3.5 2.7-1.4 3.5-2.6 3.1-4.8-.1-.5.3-.6.8-.2.6.3.8 1.2.4 2-.3.8-.1 1.5.4 1.5 1 0 5.3-4.2 5.3-5.2 0-1.1-2.9-1.7-3.5-.7zm1.9.8c.3.4-.4 1.7-1.7 2.7-1.2 1-1.9 1.5-1.5 1 .4-.5.2-1.6-.5-2.4-.8-1.1-.8-1.4 0-.9.6.4 1.4.3 1.8-.3.8-1.2 1.2-1.3 1.9-.1zm-6.7 3.1c-.1 2.1-2.3 3.5-3.2 2-.7-1.1 1.6-5 2.6-4.4.4.2.7 1.3.6 2.4zm-8.6 21.7c1 1.1 1 1.4.2.9-.8-.4-1.3-.2-1.3.6 0 1-.3.9-.9-.2-.6-.8-.7-1.8-.5-2.2.7-1.1 1-1 2.5.9z"/><path d="M114.5 211.1c-.4.6-.5 1.2-.2 1.5.2.3.7-.2 1-1.1.7-1.7.1-2-.8-.4zM146 208c0 .5.5 1 1.1 1 .5 0 .7-.5.4-1-.3-.6-.8-1-1.1-1-.2 0-.4.4-.4 1zM155.6 209.3c.3 1 .9 1.5 1.2 1.2.3-.3 0-1.1-.7-1.8-1-.9-1.1-.8-.5.6zM141.7 211c-.9 1.1-1.3 2-.7 2 .5 0 1.3-.8 1.9-1.8.8-1.5 1.1-1.4 2 1.1.6 1.6 1.5 2.6 2 2.2.5-.3 1.2.2 1.4 1 .3 1.1.4 1 .3-.2-.1-1-.7-1.7-1.3-1.6-.6.1-1.4-.9-1.7-2.2-.8-3-1.6-3.1-3.9-.5zM107.5 211c-.3.5-.1 1.9.5 3.1.7 1.1 1 2.1.8 2.2-.2.1-1.8 1.2-3.6 2.5s-3.7 2-4.2 1.7c-.6-.3-1-.2-1 .4 0 2.2 2.4 2.3 4.2.1 1-1.2 1.8-1.7 1.8-1.1 0 .7.5.9 1 .6.6-.4.7-1.2.3-1.8-.4-.8-.1-.7.9.1 2.4 1.9 3.2-.2 1.3-3.8-.9-1.7-1.3-3.5-1-4 .3-.6.4-1 .1-1-.3 0-.8.4-1.1 1zM148.2 211.6c1 1 2 1.6 2.2 1.3.3-.3-.5-1.1-1.7-1.8-2.1-1.3-2.1-1.2-.5.5zM154 210.5c0 .5.5 1.7 1 2.5s1 1 1 .5c0-.6-.5-1.7-1-2.5s-1-1.1-1-.5z"/><path d="M141.9 215.1c-1.5 1.5-1.5 1.6.7 1.6 2.5 0 2.9-.5 1.6-2.3-.4-.6-1.3-.4-2.3.7zM151.3 214.7c.4.3.1 1.3-.6 2.2-1.1 1.4-1 1.4.5.2 1.6-1.2 1.6-3.1.1-3.1-.4 0-.3.3 0 .7zM145.4 218.1c-.3.6-.1 1.6.5 2.2.9.9 1.1.8.5-.6-.5-1.3-.2-1.6 1-1.1.9.3 1.6.4 1.6.1 0-1.1-3-1.6-3.6-.6zM142 220c0 1.1-.5 1.9-1.2 1.7-.6-.1-1.3.5-1.3 1.3-.1.9 0 1 .2.2.3-.9.8-1 1.7-.3.9.7 1.2.2 1.4-2 .1-1.6 0-2.9-.3-2.9s-.5.9-.5 2zM107.8 220.7c0 .4-.2 1.4-.2 2.2-.1.8-.7 1.6-1.5 1.9-.9.3-1.1-.2-.6-1.8l.7-2.2-3.1 2.2c-2.2 1.7-2.8 2.7-2.2 3.9 1 1.9.3 4.3-1 3.5-1-.6-1.2.9-.3 1.9 1.2 1.2 4.3-3.7 3.2-5-1.3-1.6 0-3.7 1.5-2.5 1.8 1.4 5.8.8 6.8-1.1.7-1.2.4-1.9-1.1-2.7-1.1-.6-2.1-.7-2.2-.3zm2.5 2.8c-.3.9-.8 1.4-1 1.1-.3-.3-.2-.9.2-1.5.9-1.6 1.5-1.3.8.4zM95 240c0 .5.5 1 1.1 1 .5 0 .7-.5.4-1-.3-.6-.8-1-1.1-1-.2 0-.4.4-.4 1z"/></svg>