<svg enable-background="new 0 0 489.001 489.001" height="512" viewBox="0 0 489.001 489.001" width="512" xmlns="http://www.w3.org/2000/svg"><path d="m470.401 75.561-219.7-74.6c-5.2-1-9.4-1-13.5 0l-219.8 74.7c-17.9 5.5-17.4 19.6-17.4 20v287.1c0 8.3 5.2 15.6 13.5 18.7l223.7 86.3c4 1.7 12.5 1 14.6 0l223.7-86.2c8.3-3.1 13.5-10.4 13.5-18.7v-287.2c0-6.2-3.8-18.2-18.6-20.1zm-225.9-34 164.4 55.1-164.4 62.5-164.4-62.5zm-203.9 326.7v-242.4l183.1 69.7v243.4zm407.8 0-183.1 70.7v-242.8l183.1-70.3z" fill="#e5e5e5"/></svg>