<svg aria-hidden="true" role="img" xmlns="http://www.w3.org/2000/svg"
  viewBox="0 0 496 496">
  <path fill="#FFF" d="M496 457.25c0 21.402-17.348 38.75-38.75 38.75h-418.5c-21.402 0-38.75-17.348-38.75-38.75v-418.5c0-21.402 17.348-38.75 38.75-38.75h418.5c21.402 0 38.75 17.348 38.75 38.75v418.5zM248 69.75c-111.286 0-201.5 71.131-201.5 158.875 0 56.728 37.715 106.504 94.449 134.612-3.086 10.645-19.834 68.479-20.501 73.022 0 0-0.401 3.414 1.81 4.716s4.811 0.291 4.811 0.291c6.34-0.885 73.515-48.071 85.142-56.265 11.615 1.645 23.576 2.499 35.79 2.499 111.286 0 201.5-71.13 201.5-158.875 0-87.744-90.214-158.875-201.5-158.875zM136.594 284.086c-6.411 0-11.625-4.979-11.625-11.102v-69.062h-18.139c-6.291 0-11.408-5.107-11.408-11.383s5.119-11.383 11.408-11.383h59.528c6.291 0 11.408 5.107 11.408 11.383s-5.119 11.383-11.408 11.383h-18.139v69.062c0 6.123-5.214 11.102-11.625 11.102zM238.529 283.935c-4.848 0-8.556-1.969-9.674-5.134l-5.756-15.070-35.448-0.002-5.76 15.080c-1.114 3.16-4.821 5.127-9.668 5.127-0.005 0-0.012 0-0.018 0-2.673 0-5.208-0.591-7.481-1.65l0.109 0.046c-3.205-1.478-6.285-5.543-2.755-16.507l27.807-73.191c1.959-5.566 7.909-11.301 15.481-11.474 7.593 0.171 13.543 5.907 15.506 11.486l27.795 73.158c3.538 10.99 0.457 15.056-2.747 16.531-2.166 1.012-4.702 1.602-7.376 1.602-0.005 0-0.010 0-0.015 0h0.001c-0.002 0 0 0 0 0zM216.986 243.139l-11.611-32.986-11.611 32.986h23.223zM267.375 282.391c-6.144 0-11.141-4.782-11.141-10.656v-78.953c0-6.411 5.324-11.625 11.867-11.625s11.867 5.214 11.867 11.625v68.297h24.703c6.144 0 11.141 4.782 11.141 10.656s-4.997 10.656-11.141 10.656h-37.297zM331.96 283.935c-6.411 0-11.625-5.214-11.625-11.625v-79.529c0-6.411 5.214-11.625 11.625-11.625s11.625 5.214 11.625 11.625v24.986l32.434-32.434c1.668-1.668 3.96-2.587 6.448-2.587 2.902 0 5.816 1.252 8 3.433 2.036 2.034 3.251 4.652 3.418 7.37 0.169 2.742-0.744 5.255-2.565 7.078l-26.491 26.488 28.615 37.909c1.466 1.914 2.349 4.341 2.349 6.975 0 0.578-0.043 1.146-0.124 1.7l0.008-0.063c-0.443 3.151-2.104 5.848-4.481 7.646l-0.029 0.021c-1.91 1.464-4.334 2.346-6.964 2.346-0.010 0-0.020 0-0.030 0h0.001c-0.016 0-0.035 0-0.054 0-3.764 0-7.106-1.803-9.212-4.592l-0.021-0.029-27.263-36.123-4.034 4.034v25.364c-0.008 6.42-5.209 11.622-11.628 11.631h-0.001z"></path>
</svg>
